<svg xmlns="http://www.w3.org/2000/svg" viewBox="0 0 56 56">
  <g shape-rendering="crispEdges">
    <path d="M34 16h12l5 5v6l-3 3h-4l-2-2h-6l-4-4h-3v-8z" fill="#050505" />
    <path d="M34 16h12l5 5v2l-2-2-4-3h-11z" fill="#f0f0f0" opacity="0.45" />
    <path d="M37 20h10v4H37z" fill="#111" />
    <circle cx="19" cy="31" r="16" fill="#ececec" />
    <circle cx="19" cy="31" r="16" fill="none" stroke="#090909" stroke-width="2" />
    <path d="M19 15a16 16 0 0 1 14 8H19z" fill="#bcbcbc" />
    <path d="M19 31h14a16 16 0 0 1-8 12z" fill="#cfcfcf" />
    <circle cx="19" cy="31" r="3.5" fill="#d9d9d9" />
    <circle cx="19" cy="31" r="2.1" fill="#111" />
    <path d="M36 24h3v13h-3z" fill="#070707" />
    <path d="M36 24h3v2h-3z" fill="#f4f4f4" opacity="0.6" />
  </g>
</svg>
